<svg width="250" height="150" viewBox="0 0 250 150" fill="none" xmlns="http://www.w3.org/2000/svg">
<path d="M27.8848 139C27.224 139 26.7637 138.806 26.5039 138.419C26.5039 139.449 26.251 140.303 25.7451 140.982C25.18 141.734 24.3962 142.11 23.3936 142.11H21.4932C20.6501 142.11 19.9414 141.789 19.3672 141.146C18.8158 140.527 18.54 139.791 18.54 138.938V136.368H19.7432V139.075C19.7432 139.604 19.9437 140.041 20.3447 140.388C20.7275 140.716 21.1878 140.88 21.7256 140.88H23.3184C23.8516 140.88 24.3027 140.714 24.6719 140.381C25.0592 140.039 25.2529 139.604 25.2529 139.075V131.111H26.4834V136.908C26.4834 137.473 26.9505 137.76 27.8848 137.77V139ZM32.3629 139C31.8615 139.005 31.4856 138.984 31.2349 138.938C31.039 138.861 30.8316 138.722 30.6129 138.521C30.2209 138.84 29.8313 139 29.4439 139H26.7916V137.77H29.0679C29.4097 137.77 29.6467 137.701 29.7789 137.564C29.911 137.423 29.9771 137.177 29.9771 136.826V135.138H31.2076V136.826C31.2076 137.232 31.3033 137.498 31.4947 137.626C31.6405 137.722 31.9299 137.77 32.3629 137.77V139ZM31.2691 141.345C31.2691 141.554 31.1939 141.728 31.0435 141.864C30.8931 142.001 30.7131 142.069 30.5035 142.069C30.2711 142.069 30.0728 142.006 29.9087 141.878C29.7265 141.741 29.6353 141.563 29.6353 141.345C29.6353 140.894 29.8974 140.668 30.4214 140.668C30.9865 140.668 31.2691 140.894 31.2691 141.345ZM28.9107 141.345C28.9107 141.554 28.8355 141.728 28.6851 141.864C28.5347 142.001 28.3547 142.069 28.1451 142.069C27.9127 142.069 27.7144 142.006 27.5504 141.878C27.3681 141.741 27.2769 141.563 27.2769 141.345C27.2769 140.894 27.539 140.668 28.063 140.668C28.6282 140.668 28.9107 140.894 28.9107 141.345ZM36.5196 133.101C36.5196 133.315 36.4445 133.49 36.2941 133.627C36.1437 133.764 35.9637 133.832 35.754 133.832C35.1752 133.832 34.8859 133.588 34.8859 133.101C34.8859 132.645 35.1479 132.417 35.672 132.417C36.2371 132.417 36.5196 132.645 36.5196 133.101ZM34.1613 133.101C34.1613 133.315 34.0861 133.49 33.9357 133.627C33.7853 133.764 33.6053 133.832 33.3956 133.832C32.8168 133.832 32.5275 133.588 32.5275 133.101C32.5275 132.645 32.7895 132.417 33.3136 132.417C33.8787 132.417 34.1613 132.645 34.1613 133.101ZM36.882 139C36.3761 139.005 36.0001 138.984 35.754 138.938C35.5444 138.852 35.3325 138.713 35.1183 138.521C34.7264 138.84 34.3367 139 33.9493 139H31.297V137.77H33.5802C33.922 137.77 34.159 137.701 34.2911 137.564C34.4233 137.423 34.4894 137.177 34.4894 136.826V135.138H35.7267V136.826C35.7267 137.232 35.8201 137.498 36.007 137.626C36.1528 137.722 36.4445 137.77 36.882 137.77V139ZM45.5641 137.024C45.5641 137.635 45.4251 138.127 45.1471 138.501C44.8373 138.925 44.3861 139.137 43.7936 139.137C43.2149 139.137 42.6611 138.861 42.1325 138.31C41.6631 138.852 41.1641 139.123 40.6354 139.123C40.0794 139.123 39.5212 138.799 38.9606 138.152C38.4684 138.717 37.933 139 37.3542 139H35.7887V137.77H37.2653C37.835 137.77 38.1198 137.464 38.1198 136.854V135.138H39.3298V136.949C39.3298 137.241 39.4346 137.48 39.6442 137.667C39.8539 137.854 40.1068 137.947 40.403 137.947C40.9636 137.947 41.2438 137.692 41.2438 137.182V135.138H42.4401V136.949C42.4401 137.236 42.5427 137.476 42.7477 137.667C42.9574 137.854 43.208 137.947 43.4997 137.947C44.0739 137.947 44.361 137.692 44.361 137.182V135.138H45.5641V137.024ZM48.012 139H46.8157V131.111H48.012V139ZM59.6615 133.935C59.6615 134.149 59.5863 134.322 59.4359 134.454C59.2855 134.586 59.1032 134.652 58.889 134.652C58.3057 134.652 58.014 134.413 58.014 133.935C58.014 133.479 58.2783 133.251 58.807 133.251C59.3767 133.251 59.6615 133.479 59.6615 133.935ZM57.2894 133.935C57.2894 134.149 57.2119 134.322 57.057 134.454C56.9066 134.586 56.7243 134.652 56.5101 134.652C55.9359 134.652 55.6488 134.413 55.6488 133.935C55.6488 133.479 55.9131 133.251 56.4418 133.251C57.0069 133.251 57.2894 133.479 57.2894 133.935ZM60.0511 138.761C60.0511 138.938 60.0306 139.264 59.9896 139.738C59.9258 140.486 59.5954 141.101 58.9984 141.584C58.4333 142.044 57.7657 142.274 56.9955 142.274H55.1361C54.2246 142.274 53.4909 141.96 52.9349 141.331C52.4063 140.729 52.142 139.966 52.142 139.041V136.587H53.3041V139.089C53.3041 139.659 53.4795 140.139 53.8304 140.531C54.1859 140.923 54.6462 141.119 55.2113 141.119H56.9203C57.499 141.119 57.973 140.91 58.3421 140.49C58.6885 140.094 58.8662 139.599 58.8754 139.007C57.7178 139.007 56.9886 138.957 56.6879 138.856C56.0225 138.629 55.6898 138.066 55.6898 137.168C55.6898 136.58 55.8903 136.111 56.2914 135.76C56.6742 135.432 57.1664 135.268 57.7679 135.268C58.4606 135.268 59.0166 135.5 59.4359 135.965C59.8461 136.411 60.0511 136.983 60.0511 137.681V138.761ZM58.8617 137.872C58.8617 137.489 58.7569 137.166 58.5472 136.901C58.3239 136.614 58.0231 136.471 57.6449 136.471C57.0707 136.471 56.7836 136.703 56.7836 137.168C56.7836 137.66 57.1686 137.906 57.9388 137.906C58.3535 137.906 58.6612 137.895 58.8617 137.872ZM65.3085 138.788C65.3085 139.695 65.026 140.47 64.4609 141.112C63.873 141.778 63.1301 142.11 62.2323 142.11H60.5917L60.3935 140.846H61.7812C62.3736 140.846 62.8818 140.704 63.3056 140.422C63.7978 140.094 64.0439 139.645 64.0439 139.075V135.138H65.3085V138.788ZM70.812 139.157C70.812 139.978 70.5021 140.675 69.8823 141.249C69.2671 141.823 68.547 142.11 67.7221 142.11H66.1294L65.9721 140.88H67.5239C68.1072 140.88 68.5903 140.711 68.9731 140.374C69.3559 140.037 69.5587 139.579 69.5815 139C68.5561 139 67.811 138.863 67.3462 138.59C66.7264 138.225 66.4165 137.569 66.4165 136.621C66.4165 135.591 66.6603 134.869 67.1479 134.454C67.4487 134.199 67.95 134.071 68.6518 134.071C69.5861 134.071 70.2104 134.463 70.5249 135.247C70.7163 135.735 70.812 136.523 70.812 137.612V139.157ZM69.5815 137.77V136.505C69.5815 135.703 69.2602 135.302 68.6177 135.302C68.2257 135.302 67.9614 135.434 67.8247 135.698C67.729 135.89 67.6811 136.206 67.6811 136.648C67.6811 137.168 67.8885 137.501 68.3032 137.646C68.5265 137.729 68.9526 137.77 69.5815 137.77ZM81.566 139C80.7275 139 80.1214 138.966 79.7477 138.897C79.0549 138.774 78.524 138.506 78.1549 138.091C76.1861 138.925 75.2018 139.964 75.2018 141.208C75.2018 141.837 75.4798 142.432 76.0357 142.992C76.5279 143.48 77.0816 143.724 77.6969 143.724H81.2857L81.4088 144.934H78.0182C76.9244 144.934 75.9856 144.562 75.2018 143.819C74.4179 143.076 74.026 142.16 74.026 141.071C74.026 139.444 75.1015 138.171 77.2525 137.25L75.6188 135.644C75.8831 135.17 76.1588 134.65 76.4459 134.085H79.0709C79.914 134.085 80.454 134.383 80.691 134.98C80.7685 135.167 80.8072 135.322 80.8072 135.445C80.8072 135.951 80.6614 136.375 80.3697 136.717C80.1555 136.972 79.7796 137.245 79.2418 137.537C79.6064 137.692 80.3811 137.77 81.566 137.77V139ZM79.5563 135.644C79.5563 135.53 79.4811 135.436 79.3307 135.363C79.2076 135.304 79.0846 135.274 78.9615 135.274H77.0201L78.3805 136.703C79.1643 136.27 79.5563 135.917 79.5563 135.644ZM86.0441 139C85.5428 139.005 85.1668 138.984 84.9162 138.938C84.7202 138.861 84.5129 138.722 84.2941 138.521C83.9022 138.84 83.5125 139 83.1252 139H80.4728V137.77H82.7492C83.091 137.77 83.328 137.701 83.4601 137.564C83.5923 137.423 83.6584 137.177 83.6584 136.826V135.138H84.8888V136.826C84.8888 137.232 84.9845 137.498 85.1759 137.626C85.3218 137.722 85.6112 137.77 86.0441 137.77V139ZM84.9504 141.345C84.9504 141.554 84.8752 141.728 84.7248 141.864C84.5744 142.001 84.3944 142.069 84.1847 142.069C83.9523 142.069 83.7541 142.006 83.59 141.878C83.4077 141.741 83.3166 141.563 83.3166 141.345C83.3166 140.894 83.5786 140.668 84.1027 140.668C84.6678 140.668 84.9504 140.894 84.9504 141.345ZM82.592 141.345C82.592 141.554 82.5168 141.728 82.3664 141.864C82.216 142.001 82.036 142.069 81.8263 142.069C81.5939 142.069 81.3957 142.006 81.2316 141.878C81.0493 141.741 80.9582 141.563 80.9582 141.345C80.9582 140.894 81.2202 140.668 81.7443 140.668C82.3094 140.668 82.592 140.894 82.592 141.345ZM92.238 131.727C92.238 131.964 92.1537 132.166 91.9851 132.335C91.8165 132.499 91.6159 132.581 91.3835 132.581C90.7728 132.581 90.4675 132.296 90.4675 131.727C90.4675 131.239 90.7614 130.995 91.3493 130.995C91.9418 130.995 92.238 131.239 92.238 131.727ZM95.1501 136.601C95.1501 136.961 95.0977 137.325 94.9929 137.694C94.8425 138.246 94.601 138.613 94.2683 138.795C94.0176 138.932 93.5938 139 92.9968 139H89.8796C89.0593 139 88.4691 138.667 88.1091 138.002C87.6306 138.667 87.0769 139 86.448 139H84.9714V137.77H86.3386C86.9128 137.77 87.1999 137.471 87.1999 136.874V135.145L88.4167 135.138V136.717C88.4167 137.419 88.8178 137.77 89.6198 137.77C90.6316 135.313 91.7663 134.085 93.0241 134.085C93.3477 134.085 93.6667 134.178 93.9812 134.365C94.7605 134.835 95.1501 135.58 95.1501 136.601ZM93.1745 135.315C92.7644 135.315 92.2995 135.63 91.78 136.259C91.3881 136.733 91.0668 137.236 90.8161 137.77H93.2087C93.669 137.77 93.8991 137.387 93.8991 136.621C93.8991 135.751 93.6576 135.315 93.1745 135.315ZM101.549 139H100.736C100.736 139.902 100.433 140.645 99.8264 141.229C99.2249 141.816 98.4707 142.11 97.5638 142.11H95.9778L95.8069 140.88H97.3587C97.942 140.88 98.4274 140.711 98.8147 140.374C99.2021 140.037 99.4072 139.579 99.43 139C98.4137 139 97.6663 138.861 97.1878 138.583C96.5634 138.218 96.2513 137.564 96.2513 136.621C96.2513 135.591 96.4996 134.869 96.9964 134.454C97.2835 134.208 97.7688 134.085 98.4524 134.085C99.4322 134.085 100.088 134.491 100.421 135.302C100.613 135.776 100.717 136.598 100.736 137.77H101.549V139ZM99.471 137.77V136.601C99.471 136.259 99.3889 135.965 99.2249 135.719C99.038 135.441 98.7805 135.302 98.4524 135.302C98.0605 135.302 97.7962 135.434 97.6595 135.698C97.5638 135.89 97.5159 136.206 97.5159 136.648C97.5159 137.168 97.7324 137.501 98.1653 137.646C98.3977 137.729 98.833 137.77 99.471 137.77ZM105.665 133.148C105.665 133.358 105.587 133.534 105.432 133.675C105.282 133.816 105.1 133.887 104.886 133.887C104.649 133.887 104.448 133.825 104.284 133.702C104.106 133.561 104.017 133.376 104.017 133.148C104.017 132.697 104.282 132.472 104.81 132.472C105.38 132.472 105.665 132.697 105.665 133.148ZM103.306 133.148C103.306 133.358 103.229 133.534 103.074 133.675C102.924 133.816 102.741 133.887 102.527 133.887C102.29 133.887 102.09 133.825 101.926 133.702C101.748 133.561 101.659 133.376 101.659 133.148C101.659 132.697 101.923 132.472 102.452 132.472C103.022 132.472 103.306 132.697 103.306 133.148ZM104.961 136.997C104.961 137.53 104.804 137.991 104.489 138.378C104.152 138.793 103.723 139 103.204 139H100.572V137.77H102.821C103.163 137.77 103.4 137.701 103.532 137.564C103.664 137.423 103.73 137.177 103.73 136.826V135.138H104.961V136.997ZM112.898 139.157C112.898 139.978 112.589 140.675 111.969 141.249C111.353 141.823 110.633 142.11 109.809 142.11H108.216L108.059 140.88H109.61C110.194 140.88 110.677 140.711 111.06 140.374C111.442 140.037 111.645 139.579 111.668 139C110.643 139 109.897 138.863 109.433 138.59C108.813 138.225 108.503 137.569 108.503 136.621C108.503 135.591 108.747 134.869 109.234 134.454C109.535 134.199 110.036 134.071 110.738 134.071C111.672 134.071 112.297 134.463 112.611 135.247C112.803 135.735 112.898 136.523 112.898 137.612V139.157ZM111.668 137.77V136.505C111.668 135.703 111.347 135.302 110.704 135.302C110.312 135.302 110.048 135.434 109.911 135.698C109.815 135.89 109.768 136.206 109.768 136.648C109.768 137.168 109.975 137.501 110.39 137.646C110.613 137.729 111.039 137.77 111.668 137.77ZM123.037 133.087C123.037 133.297 122.96 133.474 122.805 133.62C122.654 133.761 122.472 133.832 122.258 133.832C121.688 133.832 121.403 133.584 121.403 133.087C121.403 132.64 121.663 132.417 122.183 132.417C122.752 132.417 123.037 132.64 123.037 133.087ZM120.679 133.087C120.679 133.297 120.604 133.474 120.453 133.62C120.303 133.761 120.121 133.832 119.906 133.832C119.332 133.832 119.045 133.584 119.045 133.087C119.045 132.64 119.305 132.417 119.824 132.417C120.394 132.417 120.679 132.64 120.679 133.087ZM126.298 136.997C126.298 137.517 126.134 137.975 125.806 138.371C125.459 138.79 125.031 139 124.521 139H118.026C117.502 139 117.072 138.795 116.734 138.385C116.42 138.002 116.263 137.539 116.263 136.997V135.138H117.493V136.826C117.493 137.173 117.557 137.416 117.685 137.558C117.817 137.699 118.054 137.77 118.396 137.77H124.138C124.48 137.77 124.717 137.699 124.849 137.558C124.985 137.416 125.054 137.173 125.054 136.826V135.138H126.298V136.997ZM128.739 139H127.543V131.111H128.739V139ZM136.013 137.394C136.013 137.886 135.828 138.282 135.459 138.583C135.117 138.861 134.696 139 134.195 139H130.38L130.209 137.77H134.113C134.568 137.77 134.796 137.61 134.796 137.291C134.796 137.127 134.735 136.979 134.612 136.847L131.843 133.9L132.67 133.066L135.439 135.999C135.821 136.405 136.013 136.869 136.013 137.394ZM140.963 138.788C140.963 139.695 140.68 140.47 140.115 141.112C139.527 141.778 138.784 142.11 137.886 142.11H136.246L136.048 140.846H137.435C138.028 140.846 138.536 140.704 138.96 140.422C139.452 140.094 139.698 139.645 139.698 139.075V135.138H140.963V138.788ZM143.684 139H142.488V131.111H143.684V139ZM149.844 139.157C149.844 139.978 149.534 140.675 148.914 141.249C148.299 141.823 147.579 142.11 146.754 142.11H145.161L145.004 140.88H146.556C147.139 140.88 147.622 140.711 148.005 140.374C148.388 140.037 148.59 139.579 148.613 139C147.588 139 146.843 138.863 146.378 138.59C145.758 138.225 145.448 137.569 145.448 136.621C145.448 135.591 145.692 134.869 146.18 134.454C146.48 134.199 146.982 134.071 147.683 134.071C148.618 134.071 149.242 134.463 149.557 135.247C149.748 135.735 149.844 136.523 149.844 137.612V139.157ZM148.613 137.77V136.505C148.613 135.703 148.292 135.302 147.649 135.302C147.257 135.302 146.993 135.434 146.856 135.698C146.761 135.89 146.713 136.206 146.713 136.648C146.713 137.168 146.92 137.501 147.335 137.646C147.558 137.729 147.984 137.77 148.613 137.77Z" fill="#586774"/>
<path d="M13 128.5C11.6193 128.5 10.5 127.381 10.5 126C10.5 124.619 11.6193 123.5 13 123.5V126V128.5ZM177 126V128.5H13V126V123.5H177V126Z" fill="#738595"/>
<path d="M28 118.5C26.6193 118.5 25.5 117.381 25.5 116C25.5 114.619 26.6193 113.5 28 113.5V116V118.5ZM177 116V118.5H28V116V113.5H177V116Z" fill="#738595"/>
<path d="M117 66C117 54.1331 120.519 42.5327 127.112 32.6658C133.705 22.7988 143.075 15.1085 154.039 10.5672C165.003 6.02597 177.067 4.83777 188.705 7.15288C200.344 9.468 211.035 15.1824 219.426 23.5736C227.818 31.9647 233.532 42.6557 235.847 54.2946C238.162 65.9334 236.974 77.9974 232.433 88.961C227.892 99.9246 220.201 109.295 210.334 115.888C200.467 122.481 188.867 126 177 126" stroke="#738595" stroke-width="5" stroke-miterlimit="16" stroke-linejoin="round"/>
<path d="M127 66C127 56.1109 129.932 46.4439 135.427 38.2215C140.921 29.999 148.73 23.5904 157.866 19.806C167.002 16.0216 177.055 15.0315 186.755 16.9607C196.454 18.89 205.363 23.652 212.355 30.6447C219.348 37.6373 224.11 46.5464 226.039 56.2455C227.969 65.9445 226.978 75.9979 223.194 85.1342C219.41 94.2705 213.001 102.079 204.779 107.573C196.556 113.068 186.889 116 177 116" stroke="#738595" stroke-width="5" stroke-miterlimit="16" stroke-linejoin="round"/>
<path d="M138 66C138 58.2865 140.287 50.7463 144.573 44.3328C148.858 37.9192 154.949 32.9205 162.075 29.9687C169.202 27.0169 177.043 26.2446 184.609 27.7494C192.174 29.2542 199.123 32.9686 204.577 38.4228C210.031 43.8771 213.746 50.8262 215.251 58.3915C216.755 65.9567 215.983 73.7983 213.031 80.9247C210.079 88.051 205.081 94.1419 198.667 98.4273C192.254 102.713 184.713 105 177 105" stroke="#738595" stroke-width="5" stroke-miterlimit="16" stroke-linejoin="round"/>
<path d="M149 66C149 60.4621 150.642 55.0486 153.719 50.444C156.796 45.8395 161.169 42.2506 166.285 40.1314C171.401 38.0121 177.031 37.4576 182.463 38.538C187.894 39.6184 192.883 42.2851 196.799 46.201C200.715 50.1169 203.382 55.106 204.462 60.5375C205.542 65.9689 204.988 71.5988 202.869 76.7151C200.749 81.8315 197.161 86.2045 192.556 89.2812C187.951 92.3578 182.538 94 177 94" stroke="#738595" stroke-width="5" stroke-miterlimit="16" stroke-linejoin="round"/>
<path d="M160 66C160 62.6377 160.997 59.3509 162.865 56.5553C164.733 53.7597 167.388 51.5807 170.494 50.294C173.601 49.0074 177.019 48.6707 180.317 49.3267C183.614 49.9826 186.643 51.6017 189.021 53.9792C191.398 56.3567 193.017 59.3858 193.673 62.6835C194.329 65.9811 193.993 69.3993 192.706 72.5056C191.419 75.612 189.24 78.267 186.445 80.135C183.649 82.003 180.362 83 177 83" stroke="#738595" stroke-width="5" stroke-miterlimit="16" stroke-linejoin="round"/>
<path d="M82.627 96.9834H81.4648C80.5794 96.9834 79.3011 96.2031 77.6299 94.6426C75.0068 92.1855 73.5182 90.8298 73.1641 90.5752C73.3411 91.0511 73.4297 91.5326 73.4297 92.0195C73.4297 93.5469 72.6771 94.7311 71.1719 95.5723C70.2533 96.0814 68.82 96.5296 66.8721 96.917C64.238 97.4372 61.3659 97.6973 58.2559 97.6973C55.9427 97.6973 54.1774 97.4538 52.96 96.9668C51.1006 96.2253 50.1709 94.875 50.1709 92.916C50.1709 91.4551 50.7077 90.0439 51.7812 88.6826C51.8919 88.5387 51.9971 88.4668 52.0967 88.4668C52.2848 88.4668 52.318 88.6383 52.1963 88.9814C51.7425 90.2764 51.5156 91.1396 51.5156 91.5713C51.5156 92.9215 52.5781 93.8789 54.7031 94.4434C56.0091 94.7865 57.5918 94.958 59.4512 94.958C62.3288 94.958 64.8743 94.7588 67.0879 94.3604C70.3971 93.7627 72.0518 92.833 72.0518 91.5713C72.0518 90.8519 71.2106 89.9665 69.5283 88.915C67.2926 87.5205 66.0365 86.6849 65.7598 86.4082C65.2064 85.8548 64.9297 84.8864 64.9297 83.5029C64.9297 82.8389 65.068 82.363 65.3447 82.0752C67.0713 80.3044 69.6943 78.4395 73.2139 76.4805C76.3571 74.7318 79.0742 73.5088 81.3652 72.8115C80.9336 74.1064 80.4854 75.097 80.0205 75.7832C74.3981 77.9525 69.9489 80.3929 66.6729 83.1045C66.363 83.359 66.208 83.5693 66.208 83.7354C66.208 83.9567 66.4294 84.1781 66.8721 84.3994L69.6445 85.8105C71.2493 86.6406 72.5221 87.3822 73.4629 88.0352C74.8353 88.987 76.6504 90.4811 78.9082 92.5176C80.2363 93.7129 81.2214 94.3105 81.8633 94.3105H82.627V96.9834ZM61.4932 87.1055C61.4932 87.8138 61.1999 88.5111 60.6133 89.1973C60.0267 89.8835 59.3903 90.2266 58.7041 90.2266C57.6527 90.2266 56.7396 89.8669 55.9648 89.1475C55.8874 89.07 55.8376 89.0036 55.8154 88.9482C55.8486 88.9372 55.8818 88.9206 55.915 88.8984C56.4684 88.998 56.9886 89.0479 57.4756 89.0479C58.8258 89.0479 59.6227 88.7712 59.8662 88.2178C59.9105 88.1071 59.4954 87.8968 58.6211 87.5869C57.6914 87.2549 57.2266 86.873 57.2266 86.4414C57.2266 85.8659 57.459 85.2074 57.9238 84.4658C58.5547 83.4697 59.4401 82.7503 60.5801 82.3076C60.8789 82.2301 61.0283 82.4847 61.0283 83.0713C61.0283 83.7464 60.8734 84.1449 60.5635 84.2666C59.4124 84.5765 58.8369 84.8919 58.8369 85.2129C58.8369 85.224 59.2796 85.4232 60.165 85.8105C61.0505 86.1868 61.4932 86.6185 61.4932 87.1055ZM87.0762 92.6172C87.0762 93.071 86.9489 93.6576 86.6943 94.377C86.4287 95.1406 86.152 95.6608 85.8643 95.9375C85.1338 96.6348 84.0879 96.9834 82.7266 96.9834H81.6475V94.3105H82.7598C83.2246 94.3105 83.8112 94.2497 84.5195 94.1279C85.4714 93.9619 85.9473 93.7572 85.9473 93.5137C85.9473 93.0599 85.4603 92.252 84.4863 91.0898L85.6152 89.1309C85.8145 88.7767 86.0026 88.7435 86.1797 89.0312C86.7773 90.0163 87.0762 91.2116 87.0762 92.6172ZM87.3418 102.479L85.8145 104.753L83.5898 103.242L85.167 100.951L87.3418 102.479ZM95.792 96.9834H94.3809C93.0306 96.9834 92.1452 96.1478 91.7246 94.4766C91.6139 94.0339 91.4202 92.2188 91.1436 89.0312C90.7894 84.8919 90.4961 82.0752 90.2637 80.5811C90.2415 80.4482 90.6787 79.762 91.5752 78.5225C91.6969 78.3564 91.7965 78.2734 91.874 78.2734C91.9626 78.2734 92.0179 78.4118 92.04 78.6885L92.8701 90.8574C92.9587 92.1523 93.0749 92.9658 93.2188 93.2979C93.5176 93.973 94.1429 94.3105 95.0947 94.3105H95.792V96.9834ZM100.258 92.6172C100.258 93.071 100.131 93.6576 99.876 94.377C99.6104 95.1406 99.3337 95.6608 99.0459 95.9375C98.3154 96.6348 97.2695 96.9834 95.9082 96.9834H94.8291V94.3105H95.9414C96.4062 94.3105 96.9928 94.2497 97.7012 94.1279C98.653 93.9619 99.1289 93.7572 99.1289 93.5137C99.1289 93.0599 98.6419 92.252 97.668 91.0898L98.7969 89.1309C98.9961 88.7767 99.1842 88.7435 99.3613 89.0312C99.959 90.0163 100.258 91.2116 100.258 92.6172ZM100.523 102.479L98.9961 104.753L96.7715 103.242L98.3486 100.951L100.523 102.479ZM127.202 96.9834H126.239C125.21 96.9834 124.474 96.4854 124.031 95.4893C123.943 95.279 123.871 95.1683 123.815 95.1572C123.771 95.1904 123.749 95.3011 123.749 95.4893C123.716 99.54 123.522 102.019 123.168 102.927C122.77 103.934 121.995 104.819 120.844 105.583C119.316 106.601 117.429 107.11 115.183 107.11C111.796 107.11 110.103 105.45 110.103 102.13C110.103 100.193 110.85 98.2562 112.344 96.3193C112.477 96.1423 112.609 96.0537 112.742 96.0537C112.809 96.0537 112.842 96.098 112.842 96.1865C112.842 96.2861 112.792 96.4245 112.692 96.6016C111.774 98.2507 111.314 99.7061 111.314 100.968C111.314 102.052 111.779 102.899 112.709 103.508C113.506 104.039 114.474 104.305 115.614 104.305C117.374 104.305 118.99 103.923 120.462 103.159C121.768 102.484 122.41 101.87 122.388 101.316L121.707 80.083L122.836 78.0244C122.991 77.7367 123.118 77.5928 123.218 77.5928C123.328 77.5928 123.389 77.7533 123.4 78.0742C123.411 78.7826 123.45 80.166 123.517 82.2246C123.716 87.1055 123.97 90.2764 124.28 91.7373C124.646 93.4528 125.404 94.3105 126.555 94.3105H127.202V96.9834ZM134.291 96.9834H133.312C131.784 96.9834 130.749 96.4245 130.207 95.3066C129.477 96.4245 128.414 96.9834 127.02 96.9834H126.239V94.3105H127.518C128.359 94.3105 129.028 94.1169 129.526 93.7295C129.825 93.4971 130.113 93.1374 130.39 92.6504C130.611 92.263 130.771 92.0693 130.871 92.0693C131.037 92.0693 131.187 92.3516 131.319 92.916C131.541 93.8457 132.288 94.3105 133.561 94.3105H134.291V96.9834ZM133.511 102.346L132.199 104.354L130.157 103.01L129.078 104.687L126.937 103.209L128.298 101.067L130.29 102.412L131.303 100.835L133.511 102.346ZM141.363 96.9834H140.384C138.856 96.9834 137.822 96.4245 137.279 95.3066C136.549 96.4245 135.486 96.9834 134.092 96.9834H133.312V94.3105H134.59C135.431 94.3105 136.101 94.1169 136.599 93.7295C136.897 93.4971 137.185 93.1374 137.462 92.6504C137.683 92.263 137.844 92.0693 137.943 92.0693C138.109 92.0693 138.259 92.3516 138.392 92.916C138.613 93.8457 139.36 94.3105 140.633 94.3105H141.363V96.9834ZM140.384 86.0098L139.072 88.0186L137.03 86.6738L135.951 88.3506L133.81 86.873L135.171 84.7314L137.163 86.0762L138.176 84.499L140.384 86.0098ZM156.271 91.5381C156.271 92.4788 156.083 93.3255 155.707 94.0781C155.242 95.0078 154.611 95.4727 153.814 95.4727C152.807 95.4727 151.9 95.0189 151.092 94.1113C149.797 95.8047 148.613 96.6514 147.539 96.6514C146.731 96.6514 146.122 96.513 145.713 96.2363C145.414 96.0371 145.11 95.6608 144.8 95.1074C143.97 96.3581 142.83 96.9834 141.38 96.9834H140.367V94.3105H141.679C142.774 94.3105 143.638 94.0671 144.269 93.5801C144.645 93.2812 144.982 92.8219 145.281 92.2021C145.514 91.7152 145.724 91.4717 145.912 91.4717C146.045 91.4717 146.111 91.5768 146.111 91.7871C146.111 91.8867 146.1 92.0361 146.078 92.2354C146.067 92.4235 146.062 92.5674 146.062 92.667C146.062 93.5192 146.598 93.9453 147.672 93.9453C148.602 93.9453 149.371 93.6243 149.979 92.9824C150.356 92.584 150.715 91.9863 151.059 91.1895C151.335 90.5475 151.523 90.2266 151.623 90.2266C151.811 90.2266 151.933 90.4701 151.988 90.957C152.055 91.5436 152.221 91.9531 152.486 92.1855C152.918 92.5618 153.361 92.7943 153.814 92.8828C154.545 93.0156 154.91 92.916 154.91 92.584C154.91 92.2852 154.716 91.9753 154.329 91.6543C154.473 90.9792 154.683 90.21 154.96 89.3467C155.06 89.0368 155.242 89.0146 155.508 89.2803C156.017 89.7894 156.271 90.542 156.271 91.5381ZM161.982 92.0527C161.993 92.1966 161.999 92.3626 161.999 92.5508C161.999 94.2441 161.678 95.7051 161.036 96.9336C160.97 97.0553 160.87 97.1107 160.737 97.0996C160.604 97.0885 160.544 96.9945 160.555 96.8174C160.676 95.4229 160.577 93.1872 160.256 90.1104C160.156 89.2249 159.979 87.6312 159.725 85.3291C159.57 83.8792 159.487 82.4958 159.476 81.1787C159.476 80.9684 159.664 80.5257 160.04 79.8506C160.627 78.8102 161.02 78.29 161.219 78.29C161.363 78.29 161.412 78.5391 161.368 79.0371C161.324 79.5352 161.302 80.1383 161.302 80.8467C161.302 82.6396 161.529 86.375 161.982 92.0527Z" fill="#996133"/>
</svg>
