<svg width="150" height="150" viewBox="0 0 150 150" fill="none" xmlns="http://www.w3.org/2000/svg">
<g clip-path="url(#clip0_181_124)">
<path d="M60.9531 4.38346C74.9197 1.60537 89.3972 3.03122 102.553 8.48071C115.709 13.9303 126.954 23.1591 134.866 34.9993C142.777 46.8395 147 60.7598 147 74.9998H141.24C141.24 61.8989 137.355 49.0918 130.077 38.1988C122.798 27.3057 112.452 18.8156 100.348 13.802C88.2448 8.78857 74.9261 7.47628 62.0769 10.0321C49.2276 12.588 37.4254 18.8977 28.1615 28.1615C18.8977 37.4254 12.588 49.2276 10.0321 62.0769C7.47628 74.9261 8.78857 88.2448 13.802 100.348C18.8156 112.452 27.3057 122.798 38.1988 130.077C49.0918 137.355 61.8989 141.24 74.9998 141.24V147C60.7598 147 46.8395 142.777 34.9993 134.866C23.1591 126.954 13.9303 115.709 8.48071 102.553C3.03122 89.3972 1.60537 74.9197 4.38346 60.9531C7.16163 46.9865 14.0185 34.1572 24.0879 24.0879C34.1572 14.0185 46.9865 7.16163 60.9531 4.38346Z" fill="#738595"/>
<path d="M65.6725 28.1109C74.9463 26.2662 84.56 27.2127 93.2958 30.8311C102.031 34.4496 109.498 40.577 114.751 48.4385C120.004 56.3005 122.808 65.5444 122.808 74.9998H117.048C117.048 66.6836 114.582 58.5539 109.962 51.6392C105.341 44.7245 98.7739 39.3349 91.0908 36.1524C83.4076 32.97 74.9527 32.1371 66.7963 33.7595C58.6399 35.382 51.1476 39.3867 45.2672 45.2672C39.3867 51.1476 35.382 58.6399 33.7595 66.7963C32.1371 74.9527 32.97 83.4076 36.1524 91.0908C39.3349 98.7739 44.7245 105.341 51.6392 109.962C58.5539 114.582 66.6836 117.048 74.9998 117.048V122.808C65.5444 122.808 56.3005 120.004 48.4385 114.751C40.577 109.498 34.4496 102.031 30.8311 93.2958C27.2127 84.56 26.2662 74.9463 28.1109 65.6725C29.9556 56.3988 34.5087 47.8806 41.1947 41.1947C47.8806 34.5087 56.3988 29.9556 65.6725 28.1109Z" fill="#738595"/>
<path d="M70.6168 52.9678C74.9742 52.1011 79.4914 52.5457 83.596 54.2458C87.7006 55.946 91.21 58.8251 93.6783 62.5191C96.1465 66.2132 97.4639 70.557 97.4639 74.9998H91.7039C91.7039 71.6963 90.7243 68.4665 88.8891 65.7197C87.0537 62.9728 84.4442 60.8314 81.3921 59.5671C78.34 58.3029 74.9809 57.972 71.7407 58.6164C68.5005 59.261 65.5245 60.8524 63.1884 63.1884C60.8524 65.5245 59.261 68.5005 58.6164 71.7407C57.972 74.9809 58.3029 78.34 59.5671 81.3921C60.8314 84.4442 62.9728 87.0537 65.7197 88.8891C68.4665 90.7243 71.6963 91.7039 74.9998 91.7039V97.4639C70.557 97.4639 66.2132 96.1465 62.5191 93.6783C58.8251 91.21 55.946 87.7006 54.2458 83.596C52.5457 79.4914 52.1011 74.9742 52.9678 70.6168C53.8347 66.2594 55.9733 62.2563 59.1148 59.1148C62.2563 55.9733 66.2594 53.8347 70.6168 52.9678Z" fill="#738595"/>
<path d="M95.56 147V143.08H97.96C98.92 143.08 99.7733 142.973 100.52 142.76C101.32 142.493 101.933 141.987 102.36 141.24C102.84 140.44 103.08 139.267 103.08 137.72V99C103.08 97.5067 102.84 96.3867 102.36 95.64C101.88 94.8933 101.24 94.4133 100.44 94.2C99.6933 93.9333 98.8667 93.8 97.96 93.8H95.56V89.88H118.2C125.56 89.88 131.053 91.0533 134.68 93.4C138.36 95.7467 140.2 99.4 140.2 104.36C140.2 106.707 139.773 108.68 138.92 110.28C138.067 111.88 136.893 113.187 135.4 114.2C133.907 115.213 132.147 116.04 130.12 116.68V117.08C132.573 117.56 134.733 118.44 136.6 119.72C138.467 120.947 139.933 122.547 141 124.52C142.067 126.44 142.6 128.733 142.6 131.4C142.6 136.627 140.76 140.547 137.08 143.16C133.4 145.72 127.907 147 120.6 147H95.56ZM120.2 142.44C124.147 142.44 126.92 141.587 128.52 139.88C130.173 138.173 131 135.267 131 131.16C131 128.493 130.653 126.307 129.96 124.6C129.32 122.84 128.227 121.533 126.68 120.68C125.187 119.827 123.08 119.4 120.36 119.4H113.96V142.44H120.2ZM117.96 114.84C120.68 114.84 122.787 114.493 124.28 113.8C125.827 113.053 126.92 111.907 127.56 110.36C128.253 108.813 128.6 106.813 128.6 104.36C128.6 100.627 127.773 98.04 126.12 96.6C124.52 95.16 121.747 94.44 117.8 94.44H113.96V114.84H117.96Z" fill="#996133"/>
</g>
<defs>
<clipPath id="clip0_181_124">
<rect width="150" height="150" fill="white"/>
</clipPath>
</defs>
</svg>
